# xmcd
#
# Track frame offsets:
#	150
#	11535
#	25455
#	36207
#	47406
#	59640
#	69888
#	82062
#	96399
#	107214
#	120528
#	137964
#	151014
#	162027
#	176061
#	192204
#	203874
#	217449
#	234705
#	247443
#
# Disc length: 3482 seconds
#
# Revision: 1
# Processed by: cddbd v1.5.1PL0 Copyright (c) Steve Scherf et al.
# Submitted via: EasyCDDAExtractor 8.2.2.1
#
DISCID=290d9814
DTITLE=John Lee Hooker - Boom Boom
DYEAR=2003
DGENRE=Blues
TTITLE0=Boom Boom
TTITLE1=Alberta
TTITLE2=Maudie
TTITLE3=Shake, Holler And Run
TTITLE4=Crawling King Snake
TTITLE5=Want-ad Blues
TTITLE6=Whiskey And Women
TTITLE7=Cool Little Car
TTITLE8=Gonna Boogie
TTITLE9=Ride Till I Die
TTITLE10=Wednesday Evening Blues
TTITLE11=Rock House Boogie
TTITLE12=No Shoes
TTITLE13=Half A Stranger
TTITLE14=My First Wife Left Me
TTITLE15=I Love You Honey
TTITLE16=Time Is Marchin'
TTITLE17=Bles Before Sunrise
TTITLE18=She Ain't Good For Nothin'
TTITLE19=Louise
EXTD=
EXTT0=
EXTT1=
EXTT2=
EXTT3=
EXTT4=
EXTT5=
EXTT6=
EXTT7=
EXTT8=
EXTT9=
EXTT10=
EXTT11=
EXTT12=
EXTT13=
EXTT14=
EXTT15=
EXTT16=
EXTT17=
EXTT18=
EXTT19=
PLAYORDER=
